<svg width="34" height="34" viewBox="0 0 34 34" fill="none" xmlns="http://www.w3.org/2000/svg">
<path d="M19.8333 2.83333H8.49999C7.74854 2.83333 7.02787 3.13184 6.49652 3.6632C5.96517 4.19455 5.66666 4.91522 5.66666 5.66667V28.3333C5.66666 29.0848 5.96517 29.8054 6.49652 30.3368C7.02787 30.8682 7.74854 31.1667 8.49999 31.1667H25.5C26.2514 31.1667 26.9721 30.8682 27.5035 30.3368C28.0348 29.8054 28.3333 29.0848 28.3333 28.3333V11.3333L19.8333 2.83333Z" stroke="#35322B" stroke-width="2" stroke-linecap="round" stroke-linejoin="round"/>
<path d="M19.8333 2.83333V11.3333H28.3333" stroke="#35322B" stroke-width="2" stroke-linecap="round" stroke-linejoin="round"/>
<path d="M22.6667 18.4167H11.3333" stroke="#35322B" stroke-width="2" stroke-linecap="round" stroke-linejoin="round"/>
<path d="M22.6667 24.0833H11.3333" stroke="#35322B" stroke-width="2" stroke-linecap="round" stroke-linejoin="round"/>
<path d="M14.1667 12.75H12.75H11.3333" stroke="#35322B" stroke-width="2" stroke-linecap="round" stroke-linejoin="round"/>
</svg>
