<svg width="35" height="34" viewBox="0 0 35 34" fill="none" xmlns="http://www.w3.org/2000/svg">
<path d="M12.8333 26.9167C5.74999 29.0417 5.74999 23.375 2.91666 22.6667M22.75 31.1667V25.6842C22.8031 25.0086 22.7119 24.3296 22.4823 23.692C22.2527 23.0545 21.89 22.4732 21.4183 21.9867C25.8667 21.4908 30.5417 19.805 30.5417 12.07C30.5413 10.0921 29.7805 8.19003 28.4167 6.7575C29.0625 5.02705 29.0168 3.11433 28.2892 1.41666C28.2892 1.41666 26.6175 0.920831 22.75 3.51333C19.503 2.63333 16.0803 2.63333 12.8333 3.51333C8.96582 0.920831 7.29416 1.41666 7.29416 1.41666C6.56652 3.11433 6.52086 5.02705 7.16666 6.7575C5.79267 8.20066 5.03106 10.1199 5.04166 12.1125C5.04166 19.7908 9.71666 21.4767 14.165 22.0292C13.6989 22.5108 13.3394 23.0852 13.11 23.7149C12.8806 24.3446 12.7863 25.0156 12.8333 25.6842V31.1667" stroke="#35322B" stroke-width="2" stroke-linecap="round" stroke-linejoin="round"/>
</svg>
