<svg width="34" height="34" viewBox="0 0 34 34" fill="none" xmlns="http://www.w3.org/2000/svg">
<path d="M22.6667 11.3333C24.921 11.3333 27.083 12.2289 28.6771 13.8229C30.2711 15.417 31.1667 17.579 31.1667 19.8333V29.75H25.5V19.8333C25.5 19.0819 25.2015 18.3612 24.6701 17.8299C24.1388 17.2985 23.4181 17 22.6667 17C21.9152 17 21.1945 17.2985 20.6632 17.8299C20.1318 18.3612 19.8333 19.0819 19.8333 19.8333V29.75H14.1667V19.8333C14.1667 17.579 15.0622 15.417 16.6562 13.8229C18.2503 12.2289 20.4123 11.3333 22.6667 11.3333V11.3333Z" stroke="#35322B" stroke-width="2" stroke-linecap="round" stroke-linejoin="round"/>
<path d="M8.50001 12.75H2.83334V29.75H8.50001V12.75Z" stroke="#35322B" stroke-width="2" stroke-linecap="round" stroke-linejoin="round"/>
<path d="M5.66668 8.5C7.23148 8.5 8.50001 7.23147 8.50001 5.66667C8.50001 4.10186 7.23148 2.83333 5.66668 2.83333C4.10187 2.83333 2.83334 4.10186 2.83334 5.66667C2.83334 7.23147 4.10187 8.5 5.66668 8.5Z" stroke="#35322B" stroke-width="2" stroke-linecap="round" stroke-linejoin="round"/>
</svg>
